<svg xmlns="http://www.w3.org/2000/svg" data-name="Layer 1" viewBox="0 0 128 160" x="0px" y="0px"><title>98 Web Icon Set 48 expanded</title><path d="M92.2406,75.78729l-2.78845,2.93048c-.06464.068-.13782.12592-.20428.19183,5.36432,11.81354,12.09387,21.51855,20.25287,29.26691-.44781.15082-.85712.31079-1.24585.46606a9.727,9.727,0,0,1-4.26074.85742,5.17221,5.17221,0,0,1-3.75391-1.5625,9.05782,9.05782,0,0,0-6.252-2.4375,8.477,8.477,0,0,0-5.26282,1.68219l.50208,4.65308c.36273-.25891.69684-.52313,1.00977-.77374a5.28828,5.28828,0,0,1,7.50488.001,9.05782,9.05782,0,0,0,6.252,2.4375,13.549,13.549,0,0,0,5.74512-1.14258,9.67734,9.67734,0,0,1,3.9093-.84894,1.9942,1.9942,0,0,0,1.87488-.67352,1.9761,1.9761,0,0,0,.43176-.91864l.00537-.02533a1.98227,1.98227,0,0,0,.02948-.29248c.00165-.03333.00995-.06476.00995-.09851,0-.02521-.00647-.04858-.00739-.07355-.00232-.0401-.00739-.07941-.01208-.11932a1.98924,1.98924,0,0,0-.92157-1.49768C105.66016,99.75073,98.08929,89.14636,92.2406,75.78729Z"/><path d="M62.28418,109.2384l-.43475,4.03247a9.54541,9.54541,0,0,0,2.13837.22913,9.42385,9.42385,0,0,0,2.23737-.25732l-.43585-4.04419a4.86066,4.86066,0,0,1-1.80151.30151A4.97276,4.97276,0,0,1,62.28418,109.2384Z"/><path d="M12.00977,109.59711a1.98741,1.98741,0,0,0,.02979.29535l.0047.02216A1.97667,1.97667,0,0,0,14.001,111.54a2.00979,2.00979,0,0,0,.35059-.03156,9.67715,9.67715,0,0,1,3.90527.848A13.52171,13.52171,0,0,0,23.99951,113.5a9.04556,9.04556,0,0,0,6.248-2.43848,5.283,5.283,0,0,1,7.49951,0c.33887.27124.69843.5589,1.09692.838l.5022-4.65338A8.49071,8.49071,0,0,0,33.99707,105.5a9.05036,9.05036,0,0,0-6.24854,2.43848,5.16558,5.16558,0,0,1-3.749,1.56152,9.71163,9.71163,0,0,1-4.25732-.85742c-.38794-.155-.79639-.3147-1.24323-.46533,8.1571-7.74646,14.88562-17.44873,20.24951-29.25861-.03192-.03265-.06805-.0603-.09955-.09344l-2.8902-3.03766c-5.849,13.35925-13.41986,23.96387-22.819,32.02264a1.98933,1.98933,0,0,0-.92017,1.49542c-.00482.04077-.00995.08093-.01227.12195-.00092.0246-.00732.04761-.00732.07245C12,109.53326,12.00818,109.56427,12.00977,109.59711Z"/><path d="M41.54688,76.06836a5.45318,5.45318,0,0,0,3.98145,1.71875,5.54943,5.54943,0,0,0,1.05371-.10059q-.15015,1.33447-.32959,2.89844l-4.37061,40.44727c-.31836,2.94336,1.44775,5.583,4.02,6.00977l5.4458.90039a4.29379,4.29379,0,0,0,3.33545-.85059,5.53,5.53,0,0,0,2.06592-3.8291l3.97461-36.87012c.07422-.68652.39746-.78125.73584-.78125h5.16162c.33691,0,.65918.09473.7334.78027l3.97363,36.87207a5.52554,5.52554,0,0,0,2.06738,3.82813A4.35046,4.35046,0,0,0,76.03516,128a4.27757,4.27757,0,0,0,.69434-.05664l5.44629-.90234c2.57227-.42578,4.33887-3.06055,4.02148-5.998L82.00488,82.18262c-.02051-.18848-.06543-.56055-.12793-1.07422-.10059-.833-.249-2.06055-.41016-3.48145a5.71353,5.71353,0,0,0,1.00488.08789h.001a5.58386,5.58386,0,0,0,4.082-1.75391L99.1123,62.76367a5.94012,5.94012,0,0,0-.03516-8.11816l-2.55273-2.55225L81.85254,36.4834a5.7606,5.7606,0,0,0-4.05566-1.8418c-7.90527-.21924-15.188-.21-18.82715-.18652-2.61279.01758-4.80469.05273-6.3457.0957a23.25434,23.25434,0,0,0-2.4668.1416v-.002a5.43665,5.43665,0,0,0-3.78711,1.749L31.51855,52.04883l-2.63037,2.63232a5.92892,5.92892,0,0,0,0,8.082Zm10.09338-37.94a2.04121,2.04121,0,0,1-.296.23639A2.00466,2.00466,0,0,0,51.64026,38.12836Zm.44312-.63446a1.886,1.886,0,0,1-.143.2572A1.97575,1.97575,0,0,0,52.08337,37.4939Zm-.19153.34045a1.92479,1.92479,0,0,1-.2074.24445A1.99974,1.99974,0,0,0,51.89185,37.83435ZM31.75146,57.47363l2.63037-2.63232,14.88623-15.645a1.43246,1.43246,0,0,1,1.08252-.51074,1.97343,1.97343,0,0,0,.374-.05371c1.65088-.14795,14.25732-.34473,26.96094.00781a1.793,1.793,0,0,1,1.25293.5835L93.65332,54.877l2.56055,2.561a1.90813,1.90813,0,0,1,0,2.56787L83.65625,73.2041a1.66521,1.66521,0,0,1-2.37109-.00293A1.71693,1.71693,0,0,1,80.957,72.71q-.0498-.54639-.09473-1.085a1.69043,1.69043,0,0,1,.42285-.77441l8.90234-9.35742a3.92981,3.92981,0,0,0-.02734-5.43848l-8.69629-8.78857a2.00019,2.00019,0,0,0-3.40625,1.15625c-.05957.4751-1.4707,11.71533-1.4707,18.06885,0,1.373.10156,3.1377.252,4.99707a5.7131,5.7131,0,0,0,.17969,2.05566c.30273,3.21777.6875,6.39258.8877,8.0459.05957.48926.10254.84375.12207,1.02344l4.19238,38.85938c.0957.88965-.35742,1.56641-.69824,1.62207l-5.44629.90234a.32859.32859,0,0,1-.26172-.09082,1.56216,1.56216,0,0,1-.50977-1.07129L71.33105,85.96289a4.62731,4.62731,0,0,0-4.71-4.35156H61.45947a4.62774,4.62774,0,0,0-4.7124,4.35254L52.77246,122.834a1.56255,1.56255,0,0,1-.50928,1.07227c-.14355.1084-.22949.09766-.26221.08984l-5.4458-.90039c-.34521-.05762-.79-.76855-.69678-1.63379l4.23584-39.2627.13184-1.1582c.97314-8.46484,1.1416-10.57422,1.09814-11.2334a10.44631,10.44631,0,0,1-.06055-1.22852c.022-.35254.0625-1.00879.00586-4.38574A94.817,94.817,0,0,0,49.5166,48.63428a2.00009,2.00009,0,0,0-3.3833-.998L37.8125,56.083a3.92265,3.92265,0,0,0,.00049,5.41064l8.80078,9.24951a1.90542,1.90542,0,0,1-.00293,2.56738,1.5,1.5,0,0,1-2.166,0L31.78564,60.00586A1.89938,1.89938,0,0,1,31.75146,57.47363Zm48.84131,8.30078c.06055-3.76123.56543-9.08154.959-12.73242l5.6875,5.74707ZM47.29,65.65039l-6.52881-6.86133,5.49365-5.57666a85.28291,85.28291,0,0,1,1.01563,11.04736C47.2793,64.7915,47.28564,65.252,47.29,65.65039Z"/><path d="M48.936,14.78613l.03827.02856c-.00275.11859-.01776.234-.01776.35327a15.04421,15.04421,0,1,0,30.0874,0c0-.11951-.015-.23517-.01776-.354l.03729-.02783a1.99187,1.99187,0,0,0-.53021-3.47113,14.99064,14.99064,0,0,0-29.06561-.00177,1.99284,1.99284,0,0,0-.53162,3.4729ZM64,26.33643A11.08623,11.08623,0,0,1,53.22772,17.598a12.98275,12.98275,0,0,0,5.5755,1.964A8.38023,8.38023,0,0,0,64,17.89752,8.3813,8.3813,0,0,0,69.19727,19.562a12.9811,12.9811,0,0,0,5.57556-1.96429A11.08642,11.08642,0,0,1,64,26.33643Zm-8.2583-11.9209a11.88792,11.88792,0,0,0,1.13379-.83154,3.6271,3.6271,0,0,1,2.15576-1.03027,3.20324,3.20324,0,0,1,2.501.54346A1.30141,1.30141,0,0,1,62,14.06445c0,.52783-1.21387,1.49756-3.19678,1.49756A8.318,8.318,0,0,1,55.7417,14.41553ZM66,14.06445a1.3022,1.3022,0,0,1,.46777-.96729,2.80093,2.80093,0,0,1,1.88379-.58008,5.46673,5.46673,0,0,1,.61816.03662A3.62526,3.62526,0,0,1,71.124,13.5835a11.7845,11.7845,0,0,0,1.13574.83252,8.30287,8.30287,0,0,1-3.0625,1.146C67.21387,15.562,66,14.59229,66,14.06445ZM64,4a11.0586,11.0586,0,0,1,10.20117,6.89789c-.186-.13037-.3739-.27386-.57812-.437a7.53909,7.53909,0,0,0-4.19727-1.88086,7.14553,7.14553,0,0,0-5.4259,1.37872,7.16458,7.16458,0,0,0-5.42419-1.37872A7.53942,7.53942,0,0,0,54.376,10.46143c-.20361.16278-.39117.30609-.57666.43634A11.05814,11.05814,0,0,1,64,4Z"/><polygon points="62.146 59.5 64 58.084 65.854 59.5 65.146 57.208 67 55.792 64.708 55.792 64 53.5 63.292 55.792 61 55.792 62.854 57.208 62.146 59.5"/><path d="M64,64.37451A7.87451,7.87451,0,1,0,56.12549,56.5,7.88351,7.88351,0,0,0,64,64.37451Zm0-11.749A3.87451,3.87451,0,1,1,60.12549,56.5,3.87924,3.87924,0,0,1,64,52.62549Z"/><text x="0" y="143" fill="#000000" font-size="5px" font-weight="bold" font-family="'Helvetica Neue', Helvetica, Arial-Unicode, Arial, Sans-serif">Created by Creative Mahira</text><text x="0" y="148" fill="#000000" font-size="5px" font-weight="bold" font-family="'Helvetica Neue', Helvetica, Arial-Unicode, Arial, Sans-serif">from the Noun Project</text></svg>